<svg width="35" height="11" viewBox="0 0 35 11" fill="none" xmlns="http://www.w3.org/2000/svg">
<path d="M1.14 1.37002V3.41002H3.54V4.34002H1.14V6.47002H3.84V7.40002H2.98023e-08V0.440024H3.84V1.37002H1.14ZM7.60414 4.61002L9.38414 7.40002H8.09414L6.90414 5.53002L5.78414 7.40002H4.59414L6.37414 4.69002L4.59414 1.89002H5.88414L7.07414 3.76002L8.19414 1.89002H9.38414L7.60414 4.61002ZM11.3744 2.70002C11.5677 2.44669 11.831 2.23336 12.1644 2.06002C12.4977 1.88669 12.8744 1.80002 13.2944 1.80002C13.7744 1.80002 14.211 1.92002 14.6044 2.16002C15.0044 2.39336 15.3177 2.72336 15.5444 3.15002C15.771 3.57669 15.8844 4.06669 15.8844 4.62002C15.8844 5.17336 15.771 5.67002 15.5444 6.11002C15.3177 6.54336 15.0044 6.88336 14.6044 7.13002C14.211 7.37002 13.7744 7.49002 13.2944 7.49002C12.8744 7.49002 12.501 7.40669 12.1744 7.24002C11.8477 7.06669 11.581 6.85336 11.3744 6.60002V10.02H10.2344V1.89002H11.3744V2.70002ZM14.7244 4.62002C14.7244 4.24002 14.6444 3.91336 14.4844 3.64002C14.331 3.36002 14.1244 3.15002 13.8644 3.01002C13.611 2.86336 13.3377 2.79002 13.0444 2.79002C12.7577 2.79002 12.4844 2.86336 12.2244 3.01002C11.971 3.15669 11.7644 3.37002 11.6044 3.65002C11.451 3.93002 11.3744 4.26002 11.3744 4.64002C11.3744 5.02002 11.451 5.35336 11.6044 5.64002C11.7644 5.92002 11.971 6.13336 12.2244 6.28002C12.4844 6.42669 12.7577 6.50002 13.0444 6.50002C13.3377 6.50002 13.611 6.42669 13.8644 6.28002C14.1244 6.12669 14.331 5.90669 14.4844 5.62002C14.6444 5.33336 14.7244 5.00002 14.7244 4.62002ZM18.1517 2.43187e-05V7.40002H17.0117V2.43187e-05H18.1517ZM22.0384 7.49002C21.5184 7.49002 21.0484 7.37336 20.6284 7.14002C20.2084 6.90002 19.8784 6.56669 19.6384 6.14002C19.3984 5.70669 19.2784 5.20669 19.2784 4.64002C19.2784 4.08002 19.4018 3.58336 19.6484 3.15002C19.8951 2.71669 20.2318 2.38336 20.6584 2.15002C21.0851 1.91669 21.5618 1.80002 22.0884 1.80002C22.6151 1.80002 23.0918 1.91669 23.5184 2.15002C23.9451 2.38336 24.2818 2.71669 24.5284 3.15002C24.7751 3.58336 24.8984 4.08002 24.8984 4.64002C24.8984 5.20002 24.7718 5.69669 24.5184 6.13002C24.2651 6.56336 23.9184 6.90002 23.4784 7.14002C23.0451 7.37336 22.5651 7.49002 22.0384 7.49002ZM22.0384 6.50002C22.3318 6.50002 22.6051 6.43002 22.8584 6.29002C23.1184 6.15002 23.3284 5.94002 23.4884 5.66002C23.6484 5.38002 23.7284 5.04002 23.7284 4.64002C23.7284 4.24002 23.6518 3.90336 23.4984 3.63002C23.3451 3.35002 23.1418 3.14002 22.8884 3.00002C22.6351 2.86002 22.3618 2.79002 22.0684 2.79002C21.7751 2.79002 21.5018 2.86002 21.2484 3.00002C21.0018 3.14002 20.8051 3.35002 20.6584 3.63002C20.5118 3.90336 20.4384 4.24002 20.4384 4.64002C20.4384 5.23336 20.5884 5.69336 20.8884 6.02002C21.1951 6.34002 21.5784 6.50002 22.0384 6.50002ZM27.1654 2.69002C27.3321 2.41002 27.5521 2.19336 27.8254 2.04002C28.1054 1.88002 28.4354 1.80002 28.8154 1.80002V2.98002H28.5254C28.0787 2.98002 27.7387 3.09336 27.5054 3.32002C27.2787 3.54669 27.1654 3.94002 27.1654 4.50002V7.40002H26.0254V1.89002H27.1654V2.69002ZM34.9133 4.51002C34.9133 4.71669 34.8999 4.90336 34.8733 5.07002H30.6633C30.6966 5.51002 30.8599 5.86336 31.1533 6.13002C31.4466 6.39669 31.8066 6.53002 32.2333 6.53002C32.8466 6.53002 33.2799 6.27336 33.5333 5.76002H34.7633C34.5966 6.26669 34.2933 6.68336 33.8533 7.01002C33.4199 7.33002 32.8799 7.49002 32.2333 7.49002C31.7066 7.49002 31.2333 7.37336 30.8133 7.14002C30.3999 6.90002 30.0733 6.56669 29.8333 6.14002C29.5999 5.70669 29.4833 5.20669 29.4833 4.64002C29.4833 4.07336 29.5966 3.57669 29.8233 3.15002C30.0566 2.71669 30.3799 2.38336 30.7933 2.15002C31.2133 1.91669 31.6933 1.80002 32.2333 1.80002C32.7533 1.80002 33.2166 1.91336 33.6233 2.14002C34.0299 2.36669 34.3466 2.68669 34.5733 3.10002C34.7999 3.50669 34.9133 3.97669 34.9133 4.51002ZM33.7233 4.15002C33.7166 3.73002 33.5666 3.39336 33.2733 3.14002C32.9799 2.88669 32.6166 2.76002 32.1833 2.76002C31.7899 2.76002 31.4533 2.88669 31.1733 3.14002C30.8933 3.38669 30.7266 3.72336 30.6733 4.15002H33.7233Z" fill="white" fill-opacity="0.6"/>
</svg>
