<svg width="27" height="12" viewBox="0 0 27 12" fill="none" xmlns="http://www.w3.org/2000/svg">
<path d="M5.55515e-05 8.72728V6.67572e-06H1.05687V7.78978H5.11369V8.72728H5.55515e-05ZM9.27278 8.86364C8.68187 8.86364 8.16341 8.72302 7.71739 8.44177C7.2742 8.16052 6.92761 7.76705 6.67761 7.26137C6.43045 6.75569 6.30687 6.16478 6.30687 5.48864C6.30687 4.80682 6.43045 4.21165 6.67761 3.70313C6.92761 3.19461 7.2742 2.79972 7.71739 2.51847C8.16341 2.23722 8.68187 2.0966 9.27278 2.0966C9.86369 2.0966 10.3807 2.23722 10.8239 2.51847C11.2699 2.79972 11.6165 3.19461 11.8637 3.70313C12.1137 4.21165 12.2387 4.80682 12.2387 5.48864C12.2387 6.16478 12.1137 6.75569 11.8637 7.26137C11.6165 7.76705 11.2699 8.16052 10.8239 8.44177C10.3807 8.72302 9.86369 8.86364 9.27278 8.86364ZM9.27278 7.96023C9.72165 7.96023 10.091 7.84518 10.3807 7.61506C10.6705 7.38495 10.885 7.08239 11.0242 6.70739C11.1634 6.33239 11.233 5.92614 11.233 5.48864C11.233 5.05114 11.1634 4.64347 11.0242 4.26563C10.885 3.88779 10.6705 3.58239 10.3807 3.34944C10.091 3.11648 9.72165 3.00001 9.27278 3.00001C8.82392 3.00001 8.4546 3.11648 8.16483 3.34944C7.87506 3.58239 7.66057 3.88779 7.52136 4.26563C7.38216 4.64347 7.31256 5.05114 7.31256 5.48864C7.31256 5.92614 7.38216 6.33239 7.52136 6.70739C7.66057 7.08239 7.87506 7.38495 8.16483 7.61506C8.4546 7.84518 8.82392 7.96023 9.27278 7.96023ZM16.4159 11.3182C15.9301 11.3182 15.5125 11.2557 15.1631 11.1307C14.8136 11.0085 14.5224 10.8466 14.2895 10.6449C14.0594 10.446 13.8761 10.233 13.7398 10.0057L14.5409 9.44319C14.6318 9.56251 14.7469 9.69887 14.8861 9.85228C15.0253 10.0085 15.2156 10.1435 15.4571 10.2571C15.7014 10.3736 16.021 10.4318 16.4159 10.4318C16.9443 10.4318 17.3804 10.304 17.7241 10.0483C18.0679 9.79262 18.2398 9.39205 18.2398 8.8466V7.51705H18.1545C18.0807 7.63637 17.9756 7.7841 17.8392 7.96023C17.7057 8.13353 17.5125 8.28836 17.2596 8.42472C17.0096 8.55825 16.6716 8.62501 16.2454 8.62501C15.717 8.62501 15.2426 8.50001 14.8221 8.25001C14.4045 8.00001 14.0736 7.63637 13.8292 7.1591C13.5878 6.68182 13.467 6.10228 13.467 5.42046C13.467 4.75001 13.5849 4.1662 13.8207 3.66904C14.0565 3.16904 14.3846 2.78268 14.8051 2.50995C15.2256 2.23438 15.7113 2.0966 16.2625 2.0966C16.6886 2.0966 17.0267 2.16762 17.2767 2.30967C17.5295 2.44887 17.7227 2.60796 17.8562 2.78694C17.9926 2.96307 18.0977 3.10796 18.1716 3.2216H18.2738V2.18182H19.2454V8.91478C19.2454 9.47728 19.1176 9.93467 18.8619 10.2869C18.6091 10.6421 18.2682 10.902 17.8392 11.0668C17.4131 11.2344 16.9386 11.3182 16.4159 11.3182ZM16.3818 7.7216C16.7852 7.7216 17.1261 7.62927 17.4045 7.44461C17.6829 7.25995 17.8946 6.99433 18.0395 6.64773C18.1844 6.30114 18.2568 5.88637 18.2568 5.40342C18.2568 4.93183 18.1858 4.51563 18.0437 4.15484C17.9017 3.79404 17.6915 3.51137 17.4131 3.30682C17.1346 3.10228 16.7909 3.00001 16.3818 3.00001C15.9557 3.00001 15.6006 3.10796 15.3165 3.32387C15.0352 3.53978 14.8236 3.82955 14.6815 4.19319C14.5423 4.55683 14.4727 4.96023 14.4727 5.40342C14.4727 5.85796 14.5437 6.25995 14.6858 6.60938C14.8307 6.95597 15.0437 7.2287 15.325 7.42756C15.6091 7.62359 15.9613 7.7216 16.3818 7.7216ZM23.7454 8.86364C23.1545 8.86364 22.6361 8.72302 22.19 8.44177C21.7469 8.16052 21.4003 7.76705 21.1503 7.26137C20.9031 6.75569 20.7795 6.16478 20.7795 5.48864C20.7795 4.80682 20.9031 4.21165 21.1503 3.70313C21.4003 3.19461 21.7469 2.79972 22.19 2.51847C22.6361 2.23722 23.1545 2.0966 23.7454 2.0966C24.3363 2.0966 24.8534 2.23722 25.2966 2.51847C25.7426 2.79972 26.0892 3.19461 26.3363 3.70313C26.5863 4.21165 26.7113 4.80682 26.7113 5.48864C26.7113 6.16478 26.5863 6.75569 26.3363 7.26137C26.0892 7.76705 25.7426 8.16052 25.2966 8.44177C24.8534 8.72302 24.3363 8.86364 23.7454 8.86364ZM23.7454 7.96023C24.1943 7.96023 24.5636 7.84518 24.8534 7.61506C25.1432 7.38495 25.3577 7.08239 25.4969 6.70739C25.6361 6.33239 25.7057 5.92614 25.7057 5.48864C25.7057 5.05114 25.6361 4.64347 25.4969 4.26563C25.3577 3.88779 25.1432 3.58239 24.8534 3.34944C24.5636 3.11648 24.1943 3.00001 23.7454 3.00001C23.2966 3.00001 22.9273 3.11648 22.6375 3.34944C22.3477 3.58239 22.1332 3.88779 21.994 4.26563C21.8548 4.64347 21.7852 5.05114 21.7852 5.48864C21.7852 5.92614 21.8548 6.33239 21.994 6.70739C22.1332 7.08239 22.3477 7.38495 22.6375 7.61506C22.9273 7.84518 23.2966 7.96023 23.7454 7.96023Z" fill="white"/>
</svg>
