<svg width="32" height="32" viewBox="0 0 32 32" fill="none" xmlns="http://www.w3.org/2000/svg">
<g clip-path="url(#clip0_10_157)">
<path d="M16.8255 21.2918C15.8614 22.2901 14.6969 22.8077 13.3318 22.8445C11.9667 22.8813 10.7866 22.4191 9.79134 21.458C8.79609 20.4969 8.29106 19.3317 8.27623 17.9623C8.26141 16.593 8.7358 15.4085 9.69942 14.4089L15.2584 8.65239C15.9321 7.95475 16.7446 7.59374 17.6958 7.56936C18.6466 7.54369 19.4711 7.86791 20.1692 8.54204C20.8672 9.21617 21.2203 10.0286 21.2282 10.9792C21.2362 11.9299 20.9033 12.7545 20.2296 13.453L14.9641 18.9055C14.5906 19.2924 14.1334 19.4953 13.5926 19.5142C13.0523 19.5336 12.5878 19.3557 12.1992 18.9804C11.8106 18.6051 11.6096 18.1447 11.5962 17.5991C11.5828 17.0534 11.7671 16.5828 12.1492 16.1872L17.4395 10.7089L18.0989 11.3457L12.8086 16.8239C12.6052 17.0345 12.5039 17.2833 12.5046 17.5702C12.5053 17.8581 12.6109 18.1036 12.8215 18.307C13.0321 18.5103 13.2812 18.6073 13.5689 18.598C13.8565 18.5886 14.1018 18.4789 14.3048 18.2688L19.5823 12.8037C20.0746 12.2886 20.318 11.6838 20.3124 10.9894C20.3076 10.295 20.0476 9.69897 19.5324 9.20144C19.0211 8.70773 18.4148 8.47089 17.7132 8.49091C17.0113 8.51051 16.4128 8.77659 15.9178 9.28916L10.3588 15.0457C9.56999 15.8581 9.1819 16.8244 9.19453 17.9444C9.20718 19.0652 9.62013 20.0183 10.4334 20.8037C11.2348 21.5776 12.1931 21.9487 13.3085 21.9172C14.4239 21.8856 15.3766 21.4651 16.1668 20.6556L21.7513 14.8728L22.4107 15.5095L16.8255 21.2918Z" fill="white" fill-opacity="0.5"/>
</g>
<defs>
<clipPath id="clip0_10_157">
<rect width="22" height="22" fill="white" transform="translate(15.2825) rotate(44)"/>
</clipPath>
</defs>
</svg>
