<svg width="315" height="19" viewBox="0 0 315 19" fill="none" xmlns="http://www.w3.org/2000/svg">
<path d="M8.20801 10.908H2.73601L1.72801 13.698H5.85616e-06L4.53601 1.224H6.42601L10.944 13.698H9.21601L8.20801 10.908ZM7.74001 9.576L5.47201 3.24L3.20401 9.576H7.74001ZM16.4129 13.86C15.6569 13.86 14.9789 13.734 14.3789 13.482C13.7789 13.218 13.3049 12.858 12.9569 12.402C12.6089 11.934 12.4169 11.4 12.3809 10.8H14.0729C14.1209 11.292 14.3489 11.694 14.7569 12.006C15.1769 12.318 15.7229 12.474 16.3949 12.474C17.0189 12.474 17.5109 12.336 17.8709 12.06C18.2309 11.784 18.4109 11.436 18.4109 11.016C18.4109 10.584 18.2189 10.266 17.8349 10.062C17.4509 9.846 16.8569 9.636 16.0529 9.432C15.3209 9.24 14.7209 9.048 14.2529 8.856C13.7969 8.652 13.4009 8.358 13.0649 7.974C12.7409 7.578 12.5789 7.062 12.5789 6.426C12.5789 5.922 12.7289 5.46 13.0289 5.04C13.3289 4.62 13.7549 4.29 14.3069 4.05C14.8589 3.798 15.4889 3.672 16.1969 3.672C17.2889 3.672 18.1709 3.948 18.8429 4.5C19.5149 5.052 19.8749 5.808 19.9229 6.768H18.2849C18.2489 6.252 18.0389 5.838 17.6549 5.526C17.2829 5.214 16.7789 5.058 16.1429 5.058C15.5549 5.058 15.0869 5.184 14.7389 5.436C14.3909 5.688 14.2169 6.018 14.2169 6.426C14.2169 6.75 14.3189 7.02 14.5229 7.236C14.7389 7.44 15.0029 7.608 15.3149 7.74C15.6389 7.86 16.0829 7.998 16.6469 8.154C17.3549 8.346 17.9309 8.538 18.3749 8.73C18.8189 8.91 19.1969 9.186 19.5089 9.558C19.8329 9.93 20.0009 10.416 20.0129 11.016C20.0129 11.556 19.8629 12.042 19.5629 12.474C19.2629 12.906 18.8369 13.248 18.2849 13.5C17.7449 13.74 17.1209 13.86 16.4129 13.86ZM27.8332 13.698L23.9632 9.342V13.698H22.3252V0.377998H23.9632V8.208L27.7612 3.834H30.0472L25.4032 8.748L30.0652 13.698H27.8332ZM35.7757 8.73C35.7757 7.722 35.9797 6.84 36.3877 6.084C36.7957 5.316 37.3537 4.722 38.0617 4.302C38.7817 3.882 39.5797 3.672 40.4557 3.672C41.3197 3.672 42.0697 3.858 42.7057 4.23C43.3417 4.602 43.8157 5.07 44.1277 5.634V3.834H45.7837V13.698H44.1277V11.862C43.8037 12.438 43.3177 12.918 42.6697 13.302C42.0337 13.674 41.2897 13.86 40.4377 13.86C39.5617 13.86 38.7697 13.644 38.0617 13.212C37.3537 12.78 36.7957 12.174 36.3877 11.394C35.9797 10.614 35.7757 9.726 35.7757 8.73ZM44.1277 8.748C44.1277 8.004 43.9777 7.356 43.6777 6.804C43.3777 6.252 42.9697 5.832 42.4537 5.544C41.9497 5.244 41.3917 5.094 40.7797 5.094C40.1677 5.094 39.6097 5.238 39.1057 5.526C38.6017 5.814 38.1997 6.234 37.8997 6.786C37.5997 7.338 37.4497 7.986 37.4497 8.73C37.4497 9.486 37.5997 10.146 37.8997 10.71C38.1997 11.262 38.6017 11.688 39.1057 11.988C39.6097 12.276 40.1677 12.42 40.7797 12.42C41.3917 12.42 41.9497 12.276 42.4537 11.988C42.9697 11.688 43.3777 11.262 43.6777 10.71C43.9777 10.146 44.1277 9.492 44.1277 8.748ZM53.3578 3.654C54.5578 3.654 55.5298 4.02 56.2738 4.752C57.0178 5.472 57.3898 6.516 57.3898 7.884V13.698H55.7698V8.118C55.7698 7.134 55.5238 6.384 55.0318 5.868C54.5398 5.34 53.8678 5.076 53.0158 5.076C52.1518 5.076 51.4618 5.346 50.9458 5.886C50.4418 6.426 50.1898 7.212 50.1898 8.244V13.698H48.5518V3.834H50.1898V5.238C50.5138 4.734 50.9518 4.344 51.5038 4.068C52.0678 3.792 52.6858 3.654 53.3578 3.654ZM68.5614 3.834L62.6214 18.342H60.9294L62.8734 13.59L58.8954 3.834H60.7134L63.8094 11.826L66.8694 3.834H68.5614ZM72.206 5.184V10.998C72.206 11.478 72.308 11.82 72.512 12.024C72.716 12.216 73.07 12.312 73.574 12.312H74.78V13.698H73.304C72.392 13.698 71.708 13.488 71.252 13.068C70.796 12.648 70.568 11.958 70.568 10.998V5.184H69.29V3.834H70.568V1.35H72.206V3.834H74.78V5.184H72.206ZM81.6607 3.654C82.4047 3.654 83.0767 3.816 83.6767 4.14C84.2767 4.452 84.7447 4.926 85.0807 5.562C85.4287 6.198 85.6027 6.972 85.6027 7.884V13.698H83.9827V8.118C83.9827 7.134 83.7367 6.384 83.2447 5.868C82.7527 5.34 82.0807 5.076 81.2287 5.076C80.3647 5.076 79.6747 5.346 79.1587 5.886C78.6547 6.426 78.4027 7.212 78.4027 8.244V13.698H76.7647V0.377998H78.4027V5.238C78.7267 4.734 79.1707 4.344 79.7347 4.068C80.3107 3.792 80.9527 3.654 81.6607 3.654ZM89.1243 2.232C88.8123 2.232 88.5483 2.124 88.3323 1.908C88.1163 1.692 88.0083 1.428 88.0083 1.116C88.0083 0.803997 88.1163 0.539998 88.3323 0.323997C88.5483 0.107997 88.8123 -2.6226e-06 89.1243 -2.6226e-06C89.4243 -2.6226e-06 89.6763 0.107997 89.8803 0.323997C90.0963 0.539998 90.2043 0.803997 90.2043 1.116C90.2043 1.428 90.0963 1.692 89.8803 1.908C89.6763 2.124 89.4243 2.232 89.1243 2.232ZM89.9163 3.834V13.698H88.2783V3.834H89.9163ZM97.514 3.654C98.714 3.654 99.686 4.02 100.43 4.752C101.174 5.472 101.546 6.516 101.546 7.884V13.698H99.926V8.118C99.926 7.134 99.68 6.384 99.188 5.868C98.696 5.34 98.024 5.076 97.172 5.076C96.308 5.076 95.618 5.346 95.102 5.886C94.598 6.426 94.346 7.212 94.346 8.244V13.698H92.708V3.834H94.346V5.238C94.67 4.734 95.108 4.344 95.66 4.068C96.224 3.792 96.842 3.654 97.514 3.654ZM108.29 3.672C109.142 3.672 109.886 3.858 110.522 4.23C111.17 4.602 111.65 5.07 111.962 5.634V3.834H113.618V13.914C113.618 14.814 113.426 15.612 113.042 16.308C112.658 17.016 112.106 17.568 111.386 17.964C110.678 18.36 109.85 18.558 108.902 18.558C107.606 18.558 106.526 18.252 105.662 17.64C104.798 17.028 104.288 16.194 104.132 15.138H105.752C105.932 15.738 106.304 16.218 106.868 16.578C107.432 16.95 108.11 17.136 108.902 17.136C109.802 17.136 110.534 16.854 111.098 16.29C111.674 15.726 111.962 14.934 111.962 13.914V11.844C111.638 12.42 111.158 12.9 110.522 13.284C109.886 13.668 109.142 13.86 108.29 13.86C107.414 13.86 106.616 13.644 105.896 13.212C105.188 12.78 104.63 12.174 104.222 11.394C103.814 10.614 103.61 9.726 103.61 8.73C103.61 7.722 103.814 6.84 104.222 6.084C104.63 5.316 105.188 4.722 105.896 4.302C106.616 3.882 107.414 3.672 108.29 3.672ZM111.962 8.748C111.962 8.004 111.812 7.356 111.512 6.804C111.212 6.252 110.804 5.832 110.288 5.544C109.784 5.244 109.226 5.094 108.614 5.094C108.002 5.094 107.444 5.238 106.94 5.526C106.436 5.814 106.034 6.234 105.734 6.786C105.434 7.338 105.284 7.986 105.284 8.73C105.284 9.486 105.434 10.146 105.734 10.71C106.034 11.262 106.436 11.688 106.94 11.988C107.444 12.276 108.002 12.42 108.614 12.42C109.226 12.42 109.784 12.276 110.288 11.988C110.804 11.688 111.212 11.262 111.512 10.71C111.812 10.146 111.962 9.492 111.962 8.748ZM116.908 13.806C116.596 13.806 116.332 13.698 116.116 13.482C115.9 13.266 115.792 13.002 115.792 12.69C115.792 12.378 115.9 12.114 116.116 11.898C116.332 11.682 116.596 11.574 116.908 11.574C117.208 11.574 117.46 11.682 117.664 11.898C117.88 12.114 117.988 12.378 117.988 12.69C117.988 13.002 117.88 13.266 117.664 13.482C117.46 13.698 117.208 13.806 116.908 13.806ZM132.686 1.152V2.484H129.266V13.698H127.628V2.484H124.19V1.152H132.686ZM143.198 3.834L137.258 18.342H135.566L137.51 13.59L133.532 3.834H135.35L138.446 11.826L141.506 3.834H143.198ZM146.483 5.652C146.807 5.088 147.287 4.62 147.923 4.248C148.571 3.864 149.321 3.672 150.173 3.672C151.049 3.672 151.841 3.882 152.549 4.302C153.269 4.722 153.833 5.316 154.241 6.084C154.649 6.84 154.853 7.722 154.853 8.73C154.853 9.726 154.649 10.614 154.241 11.394C153.833 12.174 153.269 12.78 152.549 13.212C151.841 13.644 151.049 13.86 150.173 13.86C149.333 13.86 148.589 13.674 147.941 13.302C147.305 12.918 146.819 12.444 146.483 11.88V18.378H144.845V3.834H146.483V5.652ZM153.179 8.73C153.179 7.986 153.029 7.338 152.729 6.786C152.429 6.234 152.021 5.814 151.505 5.526C151.001 5.238 150.443 5.094 149.831 5.094C149.231 5.094 148.673 5.244 148.157 5.544C147.653 5.832 147.245 6.258 146.933 6.822C146.633 7.374 146.483 8.016 146.483 8.748C146.483 9.492 146.633 10.146 146.933 10.71C147.245 11.262 147.653 11.688 148.157 11.988C148.673 12.276 149.231 12.42 149.831 12.42C150.443 12.42 151.001 12.276 151.505 11.988C152.021 11.688 152.429 11.262 152.729 10.71C153.029 10.146 153.179 9.486 153.179 8.73ZM166.009 8.388C166.009 8.7 165.991 9.03 165.955 9.378H158.071C158.131 10.35 158.461 11.112 159.061 11.664C159.673 12.204 160.411 12.474 161.275 12.474C161.983 12.474 162.571 12.312 163.039 11.988C163.519 11.652 163.855 11.208 164.047 10.656H165.811C165.547 11.604 165.019 12.378 164.227 12.978C163.435 13.566 162.451 13.86 161.275 13.86C160.339 13.86 159.499 13.65 158.755 13.23C158.023 12.81 157.447 12.216 157.027 11.448C156.607 10.668 156.397 9.768 156.397 8.748C156.397 7.728 156.601 6.834 157.009 6.066C157.417 5.298 157.987 4.71 158.719 4.302C159.463 3.882 160.315 3.672 161.275 3.672C162.211 3.672 163.039 3.876 163.759 4.284C164.479 4.692 165.031 5.256 165.415 5.976C165.811 6.684 166.009 7.488 166.009 8.388ZM164.317 8.046C164.317 7.422 164.179 6.888 163.903 6.444C163.627 5.988 163.249 5.646 162.769 5.418C162.301 5.178 161.779 5.058 161.203 5.058C160.375 5.058 159.667 5.322 159.079 5.85C158.503 6.378 158.173 7.11 158.089 8.046H164.317ZM181.97 2.16C183.302 2.16 184.46 2.412 185.444 2.916C186.428 3.42 187.184 4.128 187.712 5.04C188.24 5.94 188.504 6.984 188.504 8.172C188.504 9.12 188.348 10.032 188.036 10.908C187.724 11.772 187.268 12.474 186.668 13.014C186.08 13.554 185.39 13.824 184.598 13.824C183.998 13.824 183.536 13.674 183.212 13.374C182.888 13.074 182.702 12.666 182.654 12.15C182.282 12.666 181.808 13.074 181.232 13.374C180.668 13.674 180.068 13.824 179.432 13.824C178.52 13.824 177.8 13.548 177.272 12.996C176.756 12.432 176.498 11.676 176.498 10.728C176.498 9.828 176.684 8.988 177.056 8.208C177.44 7.428 177.968 6.804 178.64 6.336C179.312 5.856 180.074 5.616 180.926 5.616C182.066 5.616 182.834 6.048 183.23 6.912L183.428 5.796H184.85L183.95 10.998C183.914 11.226 183.896 11.436 183.896 11.628C183.896 12.348 184.214 12.708 184.85 12.708C185.33 12.708 185.744 12.48 186.092 12.024C186.452 11.568 186.722 10.998 186.902 10.314C187.082 9.618 187.172 8.934 187.172 8.262C187.172 6.69 186.698 5.472 185.75 4.608C184.814 3.744 183.488 3.312 181.772 3.312C180.344 3.312 179.054 3.66 177.902 4.356C176.762 5.04 175.868 5.982 175.22 7.182C174.572 8.382 174.248 9.708 174.248 11.16C174.236 12.744 174.71 13.962 175.67 14.814C176.63 15.678 177.962 16.11 179.666 16.11C180.794 16.11 181.79 15.906 182.654 15.498L182.87 16.614C181.802 17.058 180.626 17.28 179.342 17.28C178.058 17.28 176.924 17.034 175.94 16.542C174.968 16.062 174.212 15.366 173.672 14.454C173.144 13.554 172.88 12.504 172.88 11.304C172.88 9.612 173.27 8.07 174.05 6.678C174.83 5.274 175.91 4.17 177.29 3.366C178.682 2.562 180.242 2.16 181.97 2.16ZM179.918 12.546C180.458 12.546 180.956 12.39 181.412 12.078C181.868 11.754 182.228 11.322 182.492 10.782C182.756 10.23 182.888 9.63 182.888 8.982C182.888 8.358 182.714 7.854 182.366 7.47C182.03 7.074 181.55 6.876 180.926 6.876C180.35 6.876 179.84 7.05 179.396 7.398C178.964 7.734 178.628 8.184 178.388 8.748C178.148 9.3 178.028 9.876 178.028 10.476C178.028 11.112 178.19 11.616 178.514 11.988C178.838 12.36 179.306 12.546 179.918 12.546ZM203.089 1.152V2.484H197.635V6.714H202.063V8.046H197.635V13.698H195.997V1.152H203.089ZM209.369 13.86C208.445 13.86 207.605 13.65 206.849 13.23C206.105 12.81 205.517 12.216 205.085 11.448C204.665 10.668 204.455 9.768 204.455 8.748C204.455 7.74 204.671 6.852 205.103 6.084C205.547 5.304 206.147 4.71 206.903 4.302C207.659 3.882 208.505 3.672 209.441 3.672C210.377 3.672 211.223 3.882 211.979 4.302C212.735 4.71 213.329 5.298 213.761 6.066C214.205 6.834 214.427 7.728 214.427 8.748C214.427 9.768 214.199 10.668 213.743 11.448C213.299 12.216 212.693 12.81 211.925 13.23C211.157 13.65 210.305 13.86 209.369 13.86ZM209.369 12.42C209.957 12.42 210.509 12.282 211.025 12.006C211.541 11.73 211.955 11.316 212.267 10.764C212.591 10.212 212.753 9.54 212.753 8.748C212.753 7.956 212.597 7.284 212.285 6.732C211.973 6.18 211.565 5.772 211.061 5.508C210.557 5.232 210.011 5.094 209.423 5.094C208.823 5.094 208.271 5.232 207.767 5.508C207.275 5.772 206.879 6.18 206.579 6.732C206.279 7.284 206.129 7.956 206.129 8.748C206.129 9.552 206.273 10.23 206.561 10.782C206.861 11.334 207.257 11.748 207.749 12.024C208.241 12.288 208.781 12.42 209.369 12.42ZM218.219 5.436C218.507 4.872 218.915 4.434 219.443 4.122C219.983 3.81 220.637 3.654 221.405 3.654V5.346H220.973C219.137 5.346 218.219 6.342 218.219 8.334V13.698H216.581V3.834H218.219V5.436ZM239.957 3.654C240.725 3.654 241.409 3.816 242.009 4.14C242.609 4.452 243.083 4.926 243.431 5.562C243.779 6.198 243.953 6.972 243.953 7.884V13.698H242.333V8.118C242.333 7.134 242.087 6.384 241.595 5.868C241.115 5.34 240.461 5.076 239.633 5.076C238.781 5.076 238.103 5.352 237.599 5.904C237.095 6.444 236.843 7.23 236.843 8.262V13.698H235.223V8.118C235.223 7.134 234.977 6.384 234.485 5.868C234.005 5.34 233.351 5.076 232.523 5.076C231.671 5.076 230.993 5.352 230.489 5.904C229.985 6.444 229.733 7.23 229.733 8.262V13.698H228.095V3.834H229.733V5.256C230.057 4.74 230.489 4.344 231.029 4.068C231.581 3.792 232.187 3.654 232.847 3.654C233.675 3.654 234.407 3.84 235.043 4.212C235.679 4.584 236.153 5.13 236.465 5.85C236.741 5.154 237.197 4.614 237.833 4.23C238.469 3.846 239.177 3.654 239.957 3.654ZM255.64 8.388C255.64 8.7 255.622 9.03 255.586 9.378H247.702C247.762 10.35 248.092 11.112 248.692 11.664C249.304 12.204 250.042 12.474 250.906 12.474C251.614 12.474 252.202 12.312 252.67 11.988C253.15 11.652 253.486 11.208 253.678 10.656H255.442C255.178 11.604 254.65 12.378 253.858 12.978C253.066 13.566 252.082 13.86 250.906 13.86C249.97 13.86 249.13 13.65 248.386 13.23C247.654 12.81 247.078 12.216 246.658 11.448C246.238 10.668 246.028 9.768 246.028 8.748C246.028 7.728 246.232 6.834 246.64 6.066C247.048 5.298 247.618 4.71 248.35 4.302C249.094 3.882 249.946 3.672 250.906 3.672C251.842 3.672 252.67 3.876 253.39 4.284C254.11 4.692 254.662 5.256 255.046 5.976C255.442 6.684 255.64 7.488 255.64 8.388ZM253.948 8.046C253.948 7.422 253.81 6.888 253.534 6.444C253.258 5.988 252.88 5.646 252.4 5.418C251.932 5.178 251.41 5.058 250.834 5.058C250.006 5.058 249.298 5.322 248.71 5.85C248.134 6.378 247.804 7.11 247.72 8.046H253.948ZM262.608 3.654C263.808 3.654 264.78 4.02 265.524 4.752C266.268 5.472 266.64 6.516 266.64 7.884V13.698H265.02V8.118C265.02 7.134 264.774 6.384 264.282 5.868C263.79 5.34 263.118 5.076 262.266 5.076C261.402 5.076 260.712 5.346 260.196 5.886C259.692 6.426 259.44 7.212 259.44 8.244V13.698H257.802V3.834H259.44V5.238C259.764 4.734 260.202 4.344 260.754 4.068C261.318 3.792 261.936 3.654 262.608 3.654ZM271.313 5.184V10.998C271.313 11.478 271.415 11.82 271.619 12.024C271.823 12.216 272.177 12.312 272.681 12.312H273.887V13.698H272.411C271.499 13.698 270.815 13.488 270.359 13.068C269.903 12.648 269.675 11.958 269.675 10.998V5.184H268.397V3.834H269.675V1.35H271.313V3.834H273.887V5.184H271.313ZM276.718 2.232C276.406 2.232 276.142 2.124 275.926 1.908C275.71 1.692 275.602 1.428 275.602 1.116C275.602 0.803997 275.71 0.539998 275.926 0.323997C276.142 0.107997 276.406 -2.6226e-06 276.718 -2.6226e-06C277.018 -2.6226e-06 277.27 0.107997 277.474 0.323997C277.69 0.539998 277.798 0.803997 277.798 1.116C277.798 1.428 277.69 1.692 277.474 1.908C277.27 2.124 277.018 2.232 276.718 2.232ZM277.51 3.834V13.698H275.872V3.834H277.51ZM284.604 13.86C283.68 13.86 282.84 13.65 282.084 13.23C281.34 12.81 280.752 12.216 280.32 11.448C279.9 10.668 279.69 9.768 279.69 8.748C279.69 7.74 279.906 6.852 280.338 6.084C280.782 5.304 281.382 4.71 282.138 4.302C282.894 3.882 283.74 3.672 284.676 3.672C285.612 3.672 286.458 3.882 287.214 4.302C287.97 4.71 288.564 5.298 288.996 6.066C289.44 6.834 289.662 7.728 289.662 8.748C289.662 9.768 289.434 10.668 288.978 11.448C288.534 12.216 287.928 12.81 287.16 13.23C286.392 13.65 285.54 13.86 284.604 13.86ZM284.604 12.42C285.192 12.42 285.744 12.282 286.26 12.006C286.776 11.73 287.19 11.316 287.502 10.764C287.826 10.212 287.988 9.54 287.988 8.748C287.988 7.956 287.832 7.284 287.52 6.732C287.208 6.18 286.8 5.772 286.296 5.508C285.792 5.232 285.246 5.094 284.658 5.094C284.058 5.094 283.506 5.232 283.002 5.508C282.51 5.772 282.114 6.18 281.814 6.732C281.514 7.284 281.364 7.956 281.364 8.748C281.364 9.552 281.508 10.23 281.796 10.782C282.096 11.334 282.492 11.748 282.984 12.024C283.476 12.288 284.016 12.42 284.604 12.42ZM296.621 3.654C297.821 3.654 298.793 4.02 299.537 4.752C300.281 5.472 300.653 6.516 300.653 7.884V13.698H299.033V8.118C299.033 7.134 298.787 6.384 298.295 5.868C297.803 5.34 297.131 5.076 296.279 5.076C295.415 5.076 294.725 5.346 294.209 5.886C293.705 6.426 293.453 7.212 293.453 8.244V13.698H291.815V3.834H293.453V5.238C293.777 4.734 294.215 4.344 294.767 4.068C295.331 3.792 295.949 3.654 296.621 3.654ZM306.821 13.86C306.065 13.86 305.387 13.734 304.787 13.482C304.187 13.218 303.713 12.858 303.365 12.402C303.017 11.934 302.825 11.4 302.789 10.8H304.481C304.529 11.292 304.757 11.694 305.165 12.006C305.585 12.318 306.131 12.474 306.803 12.474C307.427 12.474 307.919 12.336 308.279 12.06C308.639 11.784 308.819 11.436 308.819 11.016C308.819 10.584 308.627 10.266 308.243 10.062C307.859 9.846 307.265 9.636 306.461 9.432C305.729 9.24 305.129 9.048 304.661 8.856C304.205 8.652 303.809 8.358 303.473 7.974C303.149 7.578 302.987 7.062 302.987 6.426C302.987 5.922 303.137 5.46 303.437 5.04C303.737 4.62 304.163 4.29 304.715 4.05C305.267 3.798 305.897 3.672 306.605 3.672C307.697 3.672 308.579 3.948 309.251 4.5C309.923 5.052 310.283 5.808 310.331 6.768H308.693C308.657 6.252 308.447 5.838 308.063 5.526C307.691 5.214 307.187 5.058 306.551 5.058C305.963 5.058 305.495 5.184 305.147 5.436C304.799 5.688 304.625 6.018 304.625 6.426C304.625 6.75 304.727 7.02 304.931 7.236C305.147 7.44 305.411 7.608 305.723 7.74C306.047 7.86 306.491 7.998 307.055 8.154C307.763 8.346 308.339 8.538 308.783 8.73C309.227 8.91 309.605 9.186 309.917 9.558C310.241 9.93 310.409 10.416 310.421 11.016C310.421 11.556 310.271 12.042 309.971 12.474C309.671 12.906 309.245 13.248 308.693 13.5C308.153 13.74 307.529 13.86 306.821 13.86ZM313.255 13.806C312.943 13.806 312.679 13.698 312.463 13.482C312.247 13.266 312.139 13.002 312.139 12.69C312.139 12.378 312.247 12.114 312.463 11.898C312.679 11.682 312.943 11.574 313.255 11.574C313.555 11.574 313.807 11.682 314.011 11.898C314.227 12.114 314.335 12.378 314.335 12.69C314.335 13.002 314.227 13.266 314.011 13.482C313.807 13.698 313.555 13.806 313.255 13.806Z" fill="white" fill-opacity="0.35"/>
</svg>
