<svg width="22" height="22" viewBox="0 0 22 22" fill="none" xmlns="http://www.w3.org/2000/svg">
<path d="M18.0019 10.9191L14.7372 9.22051V5.24301C14.7371 5.12728 14.7061 5.01385 14.6475 4.91543C14.589 4.81701 14.5053 4.73748 14.4057 4.68575L10.8096 2.81574C10.7264 2.77251 10.6347 2.75 10.5417 2.75C10.4487 2.75 10.3569 2.77251 10.2738 2.81574L6.6776 4.68575C6.57806 4.73748 6.49433 4.81701 6.43579 4.91543C6.37725 5.01385 6.34621 5.12728 6.34615 5.24301V9.22113L3.08145 10.9185C2.98181 10.9703 2.89802 11.0499 2.83948 11.1484C2.78093 11.247 2.74995 11.3605 2.75 11.4764V15.8397C2.74995 15.9555 2.78093 16.0691 2.83948 16.1676C2.89802 16.2662 2.98181 16.3458 3.08145 16.3976L6.6776 18.2676C6.76079 18.3108 6.85251 18.3333 6.94551 18.3333C7.03851 18.3333 7.13024 18.3108 7.21343 18.2676L10.5417 16.5366L13.8699 18.2676C13.9531 18.3108 14.0448 18.3333 14.1378 18.3333C14.2308 18.3333 14.3225 18.3108 14.4057 18.2676L18.0019 16.3976C18.1015 16.3458 18.1853 16.2662 18.2439 16.1676C18.3024 16.0691 18.3334 15.9555 18.3333 15.8397V11.4764C18.3334 11.3605 18.3024 11.247 18.2439 11.1484C18.1853 11.0499 18.1015 10.9703 18.0019 10.9185M13.5385 9.22051L11.141 10.4672V7.49761L13.5385 6.25094V9.22051ZM10.5417 4.06927L12.7977 5.24301L10.5417 6.41612L8.28568 5.24301L10.5417 4.06927ZM7.54487 6.25094L9.94231 7.49761V10.4672L7.54487 9.22051V6.25094ZM6.34615 16.7012L3.94872 15.4545V12.4849L6.34615 13.7316V16.7012ZM6.94551 12.6495L4.68953 11.4764L6.94551 10.3032L9.2015 11.4764L6.94551 12.6495ZM7.54487 13.7316L9.94231 12.4849V15.4545L7.54487 16.7012V13.7316ZM13.5385 16.7012L11.141 15.4545V12.4849L13.5385 13.7316V16.7012ZM14.1378 12.6495L11.8818 11.4764L14.1378 10.3032L16.3938 11.4764L14.1378 12.6495ZM17.1346 15.4545L14.7372 16.7012V13.7316L17.1346 12.4849V15.4545Z" fill="white" fill-opacity="0.5"/>
</svg>
