<svg width="35" height="35" viewBox="0 0 35 35" fill="none" xmlns="http://www.w3.org/2000/svg">
<path d="M18.4983 32.7944C16.721 31.3621 14.7574 30.2321 12.6075 29.4045C10.4577 28.5768 8.19959 28.0827 5.83334 27.9222V13.3087C8.25447 13.4495 10.5553 14.0202 12.7358 15.0209C14.9152 16.0216 16.8361 17.261 18.4983 18.7391C20.1606 17.261 22.0815 16.0216 24.2609 15.0209C26.4404 14.0202 28.7412 13.4495 31.1633 13.3087V27.9222C28.7908 28.0827 26.5311 28.5768 24.3844 29.4045C22.2377 30.2321 20.2757 31.3621 18.4983 32.7944ZM18.4983 30.8336C20.1606 29.6286 21.9284 28.6571 23.8018 27.919C25.6752 27.181 27.6013 26.6921 29.5802 26.4524V15.0662C27.5116 15.405 25.5374 16.0638 23.6577 17.0426C21.7781 18.0214 20.0582 19.2807 18.4983 20.8203C16.9395 19.2807 15.2197 18.0209 13.3389 17.0411C11.4582 16.0612 9.48403 15.4024 7.41647 15.0647V26.4555C9.39537 26.6921 11.3215 27.18 13.1949 27.919C15.0682 28.6581 16.8361 29.6296 18.4983 30.8336ZM18.4983 13.1883C17.0915 13.1883 15.8872 12.6937 14.8857 11.7045C13.8841 10.7142 13.3833 9.52483 13.3833 8.13635C13.3833 6.74787 13.8846 5.55901 14.8872 4.56977C15.8899 3.58054 17.0936 3.08539 18.4983 3.08435C19.9031 3.08331 21.1073 3.57845 22.111 4.56977C23.1147 5.5611 23.6155 6.74996 23.6134 8.13635C23.6113 9.52274 23.11 10.7121 22.1095 11.7045C21.1089 12.6969 19.9052 13.1915 18.4983 13.1883ZM18.4983 11.6247C19.4704 11.6247 20.3021 11.2834 20.9933 10.6006C21.6846 9.91781 22.0303 9.0964 22.0303 8.13635C22.0303 7.1763 21.6841 6.35489 20.9918 5.67211C20.2994 4.98934 19.4683 4.64848 18.4983 4.64952C17.5284 4.65056 16.6973 4.99195 16.0049 5.67368C15.3126 6.35541 14.9669 7.17682 14.968 8.13791C14.969 9.09901 15.3152 9.9199 16.0065 10.6006C16.6978 11.2813 17.5284 11.6227 18.4983 11.6247Z" fill="white" fill-opacity="0.6"/>
</svg>
