<svg width="11" height="9" viewBox="0 0 11 9" fill="none" xmlns="http://www.w3.org/2000/svg">
<path d="M1.10795 9H-5.52833e-06L3.20454 0.272727H4.29545L7.49999 9H6.39204L3.78409 1.65341H3.7159L1.10795 9ZM1.51704 5.59091H5.98295V6.52841H1.51704V5.59091ZM8.79332 9V2.45455H9.799V9H8.79332ZM9.30468 1.36364C9.10866 1.36364 8.93963 1.29688 8.79758 1.16335C8.65838 1.02983 8.58877 0.869318 8.58877 0.681818C8.58877 0.494318 8.65838 0.333807 8.79758 0.200284C8.93963 0.0667613 9.10866 0 9.30468 0C9.5007 0 9.66832 0.0667613 9.80752 0.200284C9.94957 0.333807 10.0206 0.494318 10.0206 0.681818C10.0206 0.869318 9.94957 1.02983 9.80752 1.16335C9.66832 1.29688 9.5007 1.36364 9.30468 1.36364Z" fill="white"/>
</svg>
