<svg width="25" height="8" viewBox="0 0 25 8" fill="none" xmlns="http://www.w3.org/2000/svg">
<path d="M2.27 0.750012C3.01 0.750012 3.65667 0.893345 4.21 1.18001C4.77 1.46001 5.2 1.86668 5.5 2.40001C5.80667 2.92668 5.96 3.54335 5.96 4.25001C5.96 4.95668 5.80667 5.57001 5.5 6.09001C5.2 6.61001 4.77 7.01001 4.21 7.29001C3.65667 7.56335 3.01 7.70001 2.27 7.70001H2.98023e-08V0.750012H2.27ZM2.27 6.77001C3.08333 6.77001 3.70667 6.55001 4.14 6.11001C4.57333 5.67001 4.79 5.05001 4.79 4.25001C4.79 3.44335 4.57333 2.81335 4.14 2.36001C3.70667 1.90668 3.08333 1.68001 2.27 1.68001H1.14V6.77001H2.27ZM8.22984 2.99001C8.39651 2.71001 8.61651 2.49335 8.88984 2.34001C9.16984 2.18001 9.49984 2.10001 9.87984 2.10001V3.28001H9.58984C9.14318 3.28001 8.80318 3.39335 8.56984 3.62001C8.34318 3.84668 8.22984 4.24001 8.22984 4.80001V7.70001H7.08984V2.19001H8.22984V2.99001ZM11.5077 1.46001C11.3011 1.46001 11.1277 1.39001 10.9877 1.25001C10.8477 1.11001 10.7777 0.936679 10.7777 0.730012C10.7777 0.523345 10.8477 0.350012 10.9877 0.210012C11.1277 0.0700119 11.3011 1.18017e-05 11.5077 1.18017e-05C11.7077 1.18017e-05 11.8777 0.0700119 12.0177 0.210012C12.1577 0.350012 12.2277 0.523345 12.2277 0.730012C12.2277 0.936679 12.1577 1.11001 12.0177 1.25001C11.8777 1.39001 11.7077 1.46001 11.5077 1.46001ZM12.0677 2.19001V7.70001H10.9277V2.19001H12.0677ZM15.6945 6.68001L17.2545 2.19001H18.4645L16.3645 7.70001H15.0045L12.9145 2.19001H14.1345L15.6945 6.68001ZM24.3762 4.81001C24.3762 5.01668 24.3628 5.20335 24.3362 5.37001H20.1262C20.1595 5.81001 20.3228 6.16335 20.6162 6.43001C20.9095 6.69668 21.2695 6.83001 21.6962 6.83001C22.3095 6.83001 22.7428 6.57335 22.9962 6.06001H24.2262C24.0595 6.56668 23.7562 6.98335 23.3162 7.31001C22.8828 7.63001 22.3428 7.79001 21.6962 7.79001C21.1695 7.79001 20.6962 7.67335 20.2762 7.44001C19.8628 7.20001 19.5362 6.86668 19.2962 6.44001C19.0628 6.00668 18.9462 5.50668 18.9462 4.94001C18.9462 4.37335 19.0595 3.87668 19.2862 3.45001C19.5195 3.01668 19.8428 2.68335 20.2562 2.45001C20.6762 2.21668 21.1562 2.10001 21.6962 2.10001C22.2162 2.10001 22.6795 2.21335 23.0862 2.44001C23.4928 2.66668 23.8095 2.98668 24.0362 3.40001C24.2628 3.80668 24.3762 4.27668 24.3762 4.81001ZM23.1862 4.45001C23.1795 4.03001 23.0295 3.69335 22.7362 3.44001C22.4428 3.18668 22.0795 3.06001 21.6462 3.06001C21.2528 3.06001 20.9162 3.18668 20.6362 3.44001C20.3562 3.68668 20.1895 4.02335 20.1362 4.45001H23.1862Z" fill="white" fill-opacity="0.6"/>
</svg>
