<svg width="25" height="25" viewBox="0 0 25 25" fill="none" xmlns="http://www.w3.org/2000/svg">
<g clip-path="url(#clip0_12_196)">
<path d="M21.0938 9.1875C20.6562 9.1875 20.3125 8.84375 20.3125 8.40625V2.34375C20.3125 1.90625 19.9688 1.5625 19.5312 1.5625H5.46875C5.03125 1.5625 4.6875 1.90625 4.6875 2.34375V5.46875C4.6875 5.90625 4.34375 6.25 3.90625 6.25C3.46875 6.25 3.125 5.90625 3.125 5.46875V2.34375C3.125 1.04688 4.17188 0 5.46875 0H19.5312C20.8281 0 21.875 1.04688 21.875 2.34375V8.40625C21.875 8.84375 21.5312 9.1875 21.0938 9.1875Z" fill="white" fill-opacity="0.6"/>
<path d="M22.6562 25H2.34375C1.04688 25 0 23.9531 0 22.6562V7.03125C0 5.73438 1.04688 4.6875 2.34375 4.6875H9.76562C10.0156 4.6875 10.25 4.79688 10.3906 5L12.5 7.8125H22.6562C23.9531 7.8125 25 8.85938 25 10.1562V22.6562C25 23.9531 23.9531 25 22.6562 25ZM2.34375 6.25C1.90625 6.25 1.5625 6.59375 1.5625 7.03125V22.6562C1.5625 23.0938 1.90625 23.4375 2.34375 23.4375H22.6562C23.0938 23.4375 23.4375 23.0938 23.4375 22.6562V10.1562C23.4375 9.71875 23.0938 9.375 22.6562 9.375H12.1094C11.9877 9.37755 11.8671 9.35043 11.7583 9.29599C11.6494 9.24154 11.5554 9.1614 11.4844 9.0625L9.375 6.25H2.34375Z" fill="white" fill-opacity="0.6"/>
<path d="M8.59375 20.3125H5.46875C5.03125 20.3125 4.6875 19.9688 4.6875 19.5312C4.6875 19.0938 5.03125 18.75 5.46875 18.75H8.59375C9.03125 18.75 9.375 19.0938 9.375 19.5312C9.375 19.9688 9.03125 20.3125 8.59375 20.3125Z" fill="white" fill-opacity="0.6"/>
</g>
<defs>
<clipPath id="clip0_12_196">
<rect width="25" height="25" fill="white"/>
</clipPath>
</defs>
</svg>
