<svg width="20" height="17" viewBox="0 0 20 17" fill="none" xmlns="http://www.w3.org/2000/svg">
<path d="M2.98424 11.1082L2.07224 13.0167C1.60824 13.9867 1.95724 15.1817 2.91224 15.6877C3.15097 15.8144 3.41283 15.8916 3.68211 15.9147C3.9514 15.9377 4.22257 15.9062 4.47937 15.8219C4.73617 15.7376 4.9733 15.6023 5.17656 15.4242C5.37982 15.2461 5.54501 15.0287 5.66224 14.7852L6.49374 13.0442C5.20926 12.6326 4.01712 11.975 2.98374 11.1082M17.3917 3.01568C16.872 2.91199 16.3323 3.01831 15.8907 3.31139C15.4491 3.60447 15.1416 4.06047 15.0352 4.57968C14.8427 5.53668 14.3927 6.42818 13.7717 7.18518L15.5927 11.0017C17.2732 9.55018 18.5147 7.57368 18.9597 5.36168C19.0115 5.10467 19.0119 4.83996 18.961 4.58277C18.9101 4.32559 18.8089 4.08099 18.6632 3.86304C18.5175 3.64508 18.3302 3.45807 18.112 3.31274C17.8938 3.16741 17.649 3.06662 17.3917 3.01618" stroke="white" stroke-opacity="0.5" stroke-linecap="round" stroke-linejoin="round"/>
<path d="M10.3772 9.3532C9.98866 9.44686 9.59043 9.49452 9.19073 9.4952C8.88073 9.4952 8.55923 9.4602 8.23773 9.3917C6.90573 9.1097 5.56573 8.2897 4.80773 7.2917C4.62413 7.05485 4.47265 6.79476 4.35723 6.5182C3.94223 5.4982 2.77523 5.0062 1.75073 5.4167C1.50766 5.51425 1.2862 5.65875 1.09901 5.84194C0.91182 6.02514 0.762577 6.24343 0.659812 6.48435C0.557048 6.72526 0.502777 6.98407 0.500104 7.24597C0.49743 7.50787 0.546406 7.76774 0.644232 8.0107C1.11423 9.1702 1.94323 10.2337 2.98423 11.1082C4.01677 11.9745 5.20786 12.6319 6.49123 13.0437C7.37273 13.3257 8.28723 13.4812 9.18823 13.4812C10.1882 13.4812 11.1732 13.3092 12.1132 12.9947L10.3772 9.3532Z" stroke="white" stroke-opacity="0.5" stroke-linecap="round" stroke-linejoin="round"/>
<path d="M16.5542 13.0082L15.5927 10.9962L13.7717 7.18269M13.7717 7.18269L13.7692 7.18519C13.7692 7.18519 13.7692 7.18269 13.7717 7.18269ZM13.7717 7.18269L11.1242 1.63819C10.961 1.29737 10.7048 1.00966 10.385 0.808262C10.0653 0.606867 9.69512 0.5 9.31724 0.5C8.93936 0.5 8.56919 0.606867 8.24945 0.808262C7.92971 1.00966 7.67345 1.29737 7.51024 1.63819L4.81024 7.29169C5.56824 8.28969 6.90874 9.10969 8.24024 9.39169L9.11374 7.56519C9.13252 7.52653 9.16179 7.49393 9.19822 7.47112C9.23465 7.44831 9.27676 7.43621 9.31974 7.43621C9.36272 7.43621 9.40483 7.44831 9.44126 7.47112C9.47769 7.49393 9.50697 7.52653 9.52574 7.56519L10.3802 9.35319M10.3802 9.35319H10.3852M10.3802 9.35319L12.1182 12.9947L12.9727 14.7827C13.1762 15.2068 13.5224 15.5458 13.9507 15.7402C14.379 15.9347 14.8621 15.9722 15.3152 15.8462C16.5207 15.5152 17.0922 14.1347 16.5537 13.0087" stroke="white" stroke-opacity="0.5" stroke-linecap="round" stroke-linejoin="round"/>
</svg>
