<svg width="30" height="8" viewBox="0 0 30 8" fill="none" xmlns="http://www.w3.org/2000/svg">
<path d="M5.79 1.0848e-05V6.98001H4.39V4.01001H1.4V6.98001H-2.38419e-06V1.0848e-05H1.4V2.87001H4.39V1.0848e-05H5.79ZM9.62797 7.07001C9.09463 7.07001 8.61463 6.95334 8.18797 6.72001C7.7613 6.48001 7.42463 6.14334 7.17797 5.71001C6.93797 5.27668 6.81797 4.77668 6.81797 4.21001C6.81797 3.64334 6.9413 3.14334 7.18797 2.71001C7.4413 2.27668 7.78463 1.94334 8.21797 1.71001C8.6513 1.47001 9.13463 1.35001 9.66797 1.35001C10.2013 1.35001 10.6846 1.47001 11.118 1.71001C11.5513 1.94334 11.8913 2.27668 12.138 2.71001C12.3913 3.14334 12.518 3.64334 12.518 4.21001C12.518 4.77668 12.388 5.27668 12.128 5.71001C11.8746 6.14334 11.528 6.48001 11.088 6.72001C10.6546 6.95334 10.168 7.07001 9.62797 7.07001ZM9.62797 5.85001C9.8813 5.85001 10.118 5.79001 10.338 5.67001C10.5646 5.54334 10.7446 5.35668 10.878 5.11001C11.0113 4.86334 11.078 4.56334 11.078 4.21001C11.078 3.68334 10.938 3.28001 10.658 3.00001C10.3846 2.71334 10.048 2.57001 9.64797 2.57001C9.24797 2.57001 8.9113 2.71334 8.63797 3.00001C8.3713 3.28001 8.23797 3.68334 8.23797 4.21001C8.23797 4.73668 8.36797 5.14334 8.62797 5.43001C8.89463 5.71001 9.22797 5.85001 9.62797 5.85001ZM20.4249 1.36001C21.1049 1.36001 21.6516 1.57001 22.0649 1.99001C22.4849 2.40334 22.6949 2.98334 22.6949 3.73001V6.98001H21.2949V3.92001C21.2949 3.48668 21.1849 3.15668 20.9649 2.93001C20.7449 2.69668 20.4449 2.58001 20.0649 2.58001C19.6849 2.58001 19.3816 2.69668 19.1549 2.93001C18.9349 3.15668 18.8249 3.48668 18.8249 3.92001V6.98001H17.4249V3.92001C17.4249 3.48668 17.3149 3.15668 17.0949 2.93001C16.8749 2.69668 16.5749 2.58001 16.1949 2.58001C15.8083 2.58001 15.5016 2.69668 15.2749 2.93001C15.0549 3.15668 14.9449 3.48668 14.9449 3.92001V6.98001H13.5449V1.44001H14.9449V2.11001C15.1249 1.87668 15.3549 1.69334 15.6349 1.56001C15.9216 1.42668 16.2349 1.36001 16.5749 1.36001C17.0083 1.36001 17.3949 1.45334 17.7349 1.64001C18.0749 1.82001 18.3383 2.08001 18.5249 2.42001C18.7049 2.10001 18.9649 1.84334 19.3049 1.65001C19.6516 1.45668 20.0249 1.36001 20.4249 1.36001ZM29.1734 4.09001C29.1734 4.29001 29.1601 4.47001 29.1334 4.63001H25.0834C25.1168 5.03001 25.2568 5.34334 25.5034 5.57001C25.7501 5.79668 26.0534 5.91001 26.4134 5.91001C26.9334 5.91001 27.3034 5.68668 27.5234 5.24001H29.0334C28.8734 5.77334 28.5668 6.21334 28.1134 6.56001C27.6601 6.90001 27.1034 7.07001 26.4434 7.07001C25.9101 7.07001 25.4301 6.95334 25.0034 6.72001C24.5834 6.48001 24.2534 6.14334 24.0134 5.71001C23.7801 5.27668 23.6634 4.77668 23.6634 4.21001C23.6634 3.63668 23.7801 3.13334 24.0134 2.70001C24.2468 2.26668 24.5734 1.93334 24.9934 1.70001C25.4134 1.46668 25.8968 1.35001 26.4434 1.35001C26.9701 1.35001 27.4401 1.46334 27.8534 1.69001C28.2734 1.91668 28.5968 2.24001 28.8234 2.66001C29.0568 3.07334 29.1734 3.55001 29.1734 4.09001ZM27.7234 3.69001C27.7168 3.33001 27.5868 3.04334 27.3334 2.83001C27.0801 2.61001 26.7701 2.50001 26.4034 2.50001C26.0568 2.50001 25.7634 2.60668 25.5234 2.82001C25.2901 3.02668 25.1468 3.31668 25.0934 3.69001H27.7234Z" fill="white"/>
</svg>
