<svg width="35" height="35" viewBox="0 0 35 35" fill="none" xmlns="http://www.w3.org/2000/svg">
<path d="M12.9996 22.7442L19.2135 20.7419C19.5878 20.6155 19.9043 20.4225 20.1629 20.1629C20.4215 19.9033 20.6145 19.5869 20.7419 19.2135L22.75 12.9923C22.819 12.7667 22.7675 12.5694 22.5954 12.4002C22.4224 12.231 22.2245 12.1824 22.0019 12.2544L15.7865 14.2581C15.4131 14.3845 15.0967 14.5775 14.8371 14.8371C14.5785 15.0967 14.3855 15.4131 14.2581 15.7865L12.25 22.0077C12.181 22.2333 12.2325 22.4306 12.4046 22.5998C12.5776 22.769 12.7755 22.8176 12.9981 22.7456M17.4927 19.126C17.0397 19.126 16.6566 18.9676 16.3435 18.6506C16.0295 18.3327 15.8725 17.9467 15.8725 17.4927C15.8725 17.0397 16.0315 16.6566 16.3494 16.3435C16.6673 16.0295 17.0528 15.8725 17.5058 15.8725C17.9599 15.8725 18.3439 16.0315 18.6579 16.3494C18.971 16.6673 19.1275 17.0528 19.1275 17.5058C19.1275 17.9599 18.9685 18.3439 18.6506 18.6579C18.3327 18.97 17.9472 19.126 17.4942 19.126M17.5044 30.625C15.6892 30.625 13.983 30.2808 12.3856 29.5925C10.7883 28.9032 9.39847 27.9679 8.21625 26.7867C7.03403 25.6054 6.09826 24.2171 5.40896 22.6217C4.71965 21.0262 4.375 19.3205 4.375 17.5044C4.375 15.6883 4.71965 13.982 5.40896 12.3856C6.09729 10.7883 7.03111 9.39847 8.21042 8.21625C9.38972 7.03403 10.7785 6.09826 12.3769 5.40896C13.9752 4.71965 15.6815 4.375 17.4956 4.375C19.3098 4.375 21.016 4.71965 22.6144 5.40896C24.2117 6.09729 25.6015 7.0316 26.7837 8.21187C27.966 9.39215 28.9017 10.781 29.591 12.3783C30.2803 13.9757 30.625 15.6815 30.625 17.4956C30.625 19.3098 30.2808 21.016 29.5925 22.6144C28.9042 24.2127 27.9689 25.6025 26.7867 26.7837C25.6044 27.965 24.2161 28.9008 22.6217 29.591C21.0272 30.2813 19.3215 30.626 17.5044 30.625ZM17.5 29.1667C20.7511 29.1667 23.5083 28.035 25.7717 25.7717C28.035 23.5083 29.1667 20.7511 29.1667 17.5C29.1667 14.2489 28.035 11.4917 25.7717 9.22833C23.5083 6.965 20.7511 5.83333 17.5 5.83333C14.2489 5.83333 11.4917 6.965 9.22833 9.22833C6.965 11.4917 5.83333 14.2489 5.83333 17.5C5.83333 20.7511 6.965 23.5083 9.22833 25.7717C11.4917 28.035 14.2489 29.1667 17.5 29.1667Z" fill="white" fill-opacity="0.6"/>
</svg>
