<svg width="39" height="11" viewBox="0 0 39 11" fill="none" xmlns="http://www.w3.org/2000/svg">
<path d="M4.86 2.82001C4.86 3.17335 4.77667 3.50668 4.61 3.82001C4.44333 4.13335 4.17667 4.39001 3.81 4.59001C3.44333 4.78335 2.97333 4.88001 2.4 4.88001H1.14V7.70001H2.98023e-08V0.750012H2.4C2.93333 0.750012 3.38333 0.843345 3.75 1.03001C4.12333 1.21001 4.4 1.45668 4.58 1.77001C4.76667 2.08335 4.86 2.43335 4.86 2.82001ZM2.4 3.95001C2.83333 3.95001 3.15667 3.85335 3.37 3.66001C3.58333 3.46001 3.69 3.18001 3.69 2.82001C3.69 2.06001 3.26 1.68001 2.4 1.68001H1.14V3.95001H2.4ZM7.08727 2.99001C7.25393 2.71001 7.47393 2.49335 7.74727 2.34001C8.02727 2.18001 8.35727 2.10001 8.73727 2.10001V3.28001H8.44727C8.0006 3.28001 7.6606 3.39335 7.42727 3.62001C7.2006 3.84668 7.08727 4.24001 7.08727 4.80001V7.70001H5.94727V2.19001H7.08727V2.99001ZM12.1752 7.79001C11.6552 7.79001 11.1852 7.67335 10.7652 7.44001C10.3452 7.20001 10.0152 6.86668 9.77516 6.44001C9.53516 6.00668 9.41516 5.50668 9.41516 4.94001C9.41516 4.38001 9.53849 3.88335 9.78516 3.45001C10.0318 3.01668 10.3685 2.68335 10.7952 2.45001C11.2218 2.21668 11.6985 2.10001 12.2252 2.10001C12.7518 2.10001 13.2285 2.21668 13.6552 2.45001C14.0818 2.68335 14.4185 3.01668 14.6652 3.45001C14.9118 3.88335 15.0352 4.38001 15.0352 4.94001C15.0352 5.50001 14.9085 5.99668 14.6552 6.43001C14.4018 6.86335 14.0552 7.20001 13.6152 7.44001C13.1818 7.67335 12.7018 7.79001 12.1752 7.79001ZM12.1752 6.80001C12.4685 6.80001 12.7418 6.73001 12.9952 6.59001C13.2552 6.45001 13.4652 6.24001 13.6252 5.96001C13.7852 5.68001 13.8652 5.34001 13.8652 4.94001C13.8652 4.54001 13.7885 4.20335 13.6352 3.93001C13.4818 3.65001 13.2785 3.44001 13.0252 3.30001C12.7718 3.16001 12.4985 3.09001 12.2052 3.09001C11.9118 3.09001 11.6385 3.16001 11.3852 3.30001C11.1385 3.44001 10.9418 3.65001 10.7952 3.93001C10.6485 4.20335 10.5752 4.54001 10.5752 4.94001C10.5752 5.53335 10.7252 5.99335 11.0252 6.32001C11.3318 6.64001 11.7152 6.80001 12.1752 6.80001ZM16.7421 1.46001C16.5354 1.46001 16.3621 1.39001 16.2221 1.25001C16.0821 1.11001 16.0121 0.936679 16.0121 0.730012C16.0121 0.523345 16.0821 0.350012 16.2221 0.210012C16.3621 0.0700119 16.5354 1.18017e-05 16.7421 1.18017e-05C16.9421 1.18017e-05 17.1121 0.0700119 17.2521 0.210012C17.3921 0.350012 17.4621 0.523345 17.4621 0.730012C17.4621 0.936679 17.3921 1.11001 17.2521 1.25001C17.1121 1.39001 16.9421 1.46001 16.7421 1.46001ZM17.3021 8.78001C17.3021 9.32001 17.1654 9.71001 16.8921 9.95001C16.6254 10.1967 16.2354 10.32 15.7221 10.32H15.1321V9.36001H15.5221C15.7554 9.36001 15.9188 9.31335 16.0121 9.22001C16.1121 9.13335 16.1621 8.98668 16.1621 8.78001V2.19001H17.3021V8.78001ZM23.8488 4.81001C23.8488 5.01668 23.8355 5.20335 23.8088 5.37001H19.5988C19.6322 5.81001 19.7955 6.16335 20.0888 6.43001C20.3822 6.69668 20.7422 6.83001 21.1688 6.83001C21.7822 6.83001 22.2155 6.57335 22.4688 6.06001H23.6988C23.5322 6.56668 23.2288 6.98335 22.7888 7.31001C22.3555 7.63001 21.8155 7.79001 21.1688 7.79001C20.6422 7.79001 20.1688 7.67335 19.7488 7.44001C19.3355 7.20001 19.0088 6.86668 18.7688 6.44001C18.5355 6.00668 18.4188 5.50668 18.4188 4.94001C18.4188 4.37335 18.5322 3.87668 18.7588 3.45001C18.9922 3.01668 19.3155 2.68335 19.7288 2.45001C20.1488 2.21668 20.6288 2.10001 21.1688 2.10001C21.6888 2.10001 22.1522 2.21335 22.5588 2.44001C22.9655 2.66668 23.2822 2.98668 23.5088 3.40001C23.7355 3.80668 23.8488 4.27668 23.8488 4.81001ZM22.6588 4.45001C22.6522 4.03001 22.5022 3.69335 22.2088 3.44001C21.9155 3.18668 21.5522 3.06001 21.1188 3.06001C20.7255 3.06001 20.3888 3.18668 20.1088 3.44001C19.8288 3.68668 19.6622 4.02335 19.6088 4.45001H22.6588ZM24.5907 4.94001C24.5907 4.37335 24.704 3.87668 24.9307 3.45001C25.164 3.01668 25.484 2.68335 25.8907 2.45001C26.2974 2.21668 26.764 2.10001 27.2907 2.10001C27.9574 2.10001 28.5074 2.26001 28.9407 2.58001C29.3807 2.89335 29.6774 3.34335 29.8307 3.93001H28.6007C28.5007 3.65668 28.3407 3.44335 28.1207 3.29001C27.9007 3.13668 27.624 3.06001 27.2907 3.06001C26.824 3.06001 26.4507 3.22668 26.1707 3.56001C25.8974 3.88668 25.7607 4.34668 25.7607 4.94001C25.7607 5.53335 25.8974 5.99668 26.1707 6.33001C26.4507 6.66335 26.824 6.83001 27.2907 6.83001C27.9507 6.83001 28.3874 6.54001 28.6007 5.96001H29.8307C29.6707 6.52001 29.3707 6.96668 28.9307 7.30001C28.4907 7.62668 27.944 7.79001 27.2907 7.79001C26.764 7.79001 26.2974 7.67335 25.8907 7.44001C25.484 7.20001 25.164 6.86668 24.9307 6.44001C24.704 6.00668 24.5907 5.50668 24.5907 4.94001ZM32.2968 3.12001V6.17001C32.2968 6.37668 32.3435 6.52668 32.4368 6.62001C32.5368 6.70668 32.7035 6.75001 32.9368 6.75001H33.6368V7.70001H32.7368C32.2235 7.70001 31.8301 7.58001 31.5568 7.34001C31.2835 7.10001 31.1468 6.71001 31.1468 6.17001V3.12001H30.4968V2.19001H31.1468V0.820012H32.2968V2.19001H33.6368V3.12001H32.2968ZM36.6875 7.79001C36.2542 7.79001 35.8642 7.71335 35.5175 7.56001C35.1775 7.40001 34.9075 7.18668 34.7075 6.92001C34.5075 6.64668 34.4008 6.34335 34.3875 6.01001H35.5675C35.5875 6.24335 35.6975 6.44001 35.8975 6.60001C36.1042 6.75335 36.3608 6.83001 36.6675 6.83001C36.9875 6.83001 37.2342 6.77001 37.4075 6.65001C37.5875 6.52335 37.6775 6.36335 37.6775 6.17001C37.6775 5.96335 37.5775 5.81001 37.3775 5.71001C37.1842 5.61001 36.8742 5.50001 36.4475 5.38001C36.0342 5.26668 35.6975 5.15668 35.4375 5.05001C35.1775 4.94335 34.9508 4.78001 34.7575 4.56001C34.5708 4.34001 34.4775 4.05001 34.4775 3.69001C34.4775 3.39668 34.5642 3.13001 34.7375 2.89001C34.9108 2.64335 35.1575 2.45001 35.4775 2.31001C35.8042 2.17001 36.1775 2.10001 36.5975 2.10001C37.2242 2.10001 37.7275 2.26001 38.1075 2.58001C38.4942 2.89335 38.7008 3.32335 38.7275 3.87001H37.5875C37.5675 3.62335 37.4675 3.42668 37.2875 3.28001C37.1075 3.13335 36.8642 3.06001 36.5575 3.06001C36.2575 3.06001 36.0275 3.11668 35.8675 3.23001C35.7075 3.34335 35.6275 3.49335 35.6275 3.68001C35.6275 3.82668 35.6808 3.95001 35.7875 4.05001C35.8942 4.15001 36.0242 4.23001 36.1775 4.29001C36.3308 4.34335 36.5575 4.41335 36.8575 4.50001C37.2575 4.60668 37.5842 4.71668 37.8375 4.83001C38.0975 4.93668 38.3208 5.09668 38.5075 5.31001C38.6942 5.52335 38.7908 5.80668 38.7975 6.16001C38.7975 6.47335 38.7108 6.75335 38.5375 7.00001C38.3642 7.24668 38.1175 7.44001 37.7975 7.58001C37.4842 7.72001 37.1142 7.79001 36.6875 7.79001Z" fill="white" fill-opacity="0.6"/>
</svg>
