<svg width="17" height="17" viewBox="0 0 17 17" fill="none" xmlns="http://www.w3.org/2000/svg">
<path d="M7.79169 1.41666C7.97869 1.41666 8.16356 1.42516 8.34631 1.44216C8.1012 1.87388 7.93363 2.3452 7.85119 2.83475L7.79169 2.83333C5.05256 2.83333 2.83335 5.05183 2.83335 7.79166C2.83335 10.5315 5.05256 12.75 7.79169 12.75C9.08121 12.7516 10.3203 12.2494 11.2448 11.3503L11.3511 11.2441C12.2497 10.3197 12.7516 9.08085 12.75 7.79166L12.7479 7.73146C13.2375 7.64879 13.7088 7.48098 14.1405 7.23562C14.2864 8.86693 13.7961 10.4915 12.772 11.7697L15.8058 14.8035L14.8035 15.805L11.7704 12.772C10.6418 13.6767 9.2381 14.1687 7.79169 14.1667C4.27269 14.1667 1.41669 11.3107 1.41669 7.79166C1.41669 4.27266 4.27269 1.41666 7.79169 1.41666ZM11.7088 0.934289C11.7356 0.867974 11.7816 0.811182 11.8409 0.771192C11.9002 0.731203 11.9702 0.709839 12.0417 0.709839C12.1132 0.709839 12.1831 0.731203 12.2424 0.771192C12.3018 0.811182 12.3478 0.867974 12.3746 0.934289L12.5545 1.36708C12.8554 2.09999 13.4258 2.68966 14.1483 3.01466L14.6569 3.24133C14.7221 3.27133 14.7773 3.31941 14.8161 3.37986C14.8548 3.44031 14.8754 3.5106 14.8754 3.58239C14.8754 3.65419 14.8548 3.72448 14.8161 3.78493C14.7773 3.84538 14.7221 3.89345 14.6569 3.92346L14.1185 4.16287C13.414 4.47902 12.8535 5.04764 12.5474 5.75662L12.3725 6.15754C12.3452 6.22282 12.2993 6.27859 12.2404 6.31782C12.1816 6.35704 12.1124 6.37797 12.0417 6.37797C11.971 6.37797 11.9018 6.35704 11.8429 6.31782C11.7841 6.27859 11.7381 6.22282 11.7109 6.15754L11.5366 5.75733C11.2304 5.04783 10.6693 4.4789 9.96415 4.16287L9.42581 3.92346C9.36059 3.89345 9.30533 3.84538 9.2666 3.78493C9.22787 3.72448 9.20728 3.65419 9.20728 3.58239C9.20728 3.5106 9.22787 3.44031 9.2666 3.37986C9.30533 3.31941 9.36059 3.27133 9.42581 3.24133L9.93439 3.01466C10.6572 2.68981 11.2279 2.10012 11.5289 1.36708L11.7088 0.934289Z" fill="url(#paint0_linear_9_60)"/>
<defs>
<linearGradient id="paint0_linear_9_60" x1="8.61123" y1="0.709839" x2="8.61123" y2="15.805" gradientUnits="userSpaceOnUse">
<stop stop-color="#4D8BE7"/>
<stop offset="1" stop-color="#8143B1"/>
</linearGradient>
</defs>
</svg>
