<svg width="23" height="23" viewBox="0 0 23 23" fill="none" xmlns="http://www.w3.org/2000/svg">
<path d="M7.55402 8.31737C7.55205 8.3638 7.5596 8.41013 7.5762 8.45353C7.5928 8.49693 7.6181 8.53647 7.65055 8.56973C7.683 8.60298 7.72191 8.62925 7.76489 8.64691C7.80786 8.66458 7.854 8.67326 7.90045 8.67244H9.08639C9.28477 8.67244 9.44289 8.51 9.46877 8.31306C9.59814 7.37006 10.245 6.68294 11.3979 6.68294C12.384 6.68294 13.2868 7.176 13.2868 8.36194C13.2868 9.27475 12.7491 9.6945 11.8996 10.3328C10.9321 11.0357 10.166 11.8565 10.2206 13.1891L10.2249 13.501C10.2264 13.5953 10.2649 13.6853 10.3322 13.7514C10.3994 13.8176 10.4899 13.8546 10.5843 13.8546H11.7501C11.8454 13.8546 11.9368 13.8168 12.0042 13.7494C12.0716 13.682 12.1095 13.5906 12.1095 13.4952V13.3443C12.1095 12.3122 12.5019 12.0117 13.5613 11.2082C14.4368 10.5426 15.3496 9.80375 15.3496 8.25269C15.3496 6.08063 13.5153 5.03125 11.5071 5.03125C9.68583 5.03125 7.69058 5.87937 7.55402 8.31737ZM9.7922 16.6017C9.7922 17.3679 10.4031 17.9342 11.2441 17.9342C12.1195 17.9342 12.7218 17.3679 12.7218 16.6017C12.7218 15.8082 12.1181 15.2504 11.2426 15.2504C10.4031 15.2504 9.7922 15.8082 9.7922 16.6017Z" fill="white" fill-opacity="0.5"/>
</svg>
